<?xml version="1.0" standalone="no"?>
<!DOCTYPE svg PUBLIC "-//W3C//DTD SVG 20010904//EN"
 "http://www.w3.org/TR/2001/REC-SVG-20010904/DTD/svg10.dtd">
<svg version="1.0" xmlns="http://www.w3.org/2000/svg"
 width="700.000000pt" height="700.000000pt" viewBox="0 0 700.000000 700.000000"
 preserveAspectRatio="xMidYMid meet">
<metadata>
Created by potrace 1.11, written by Peter Selinger 2001-2013
</metadata>
<g transform="translate(0.000000,700.000000) scale(0.100000,-0.100000)"
fill="#000000" stroke="none">
<path d="M977 6044 c-1 -1 -47 -5 -102 -9 -55 -3 -105 -11 -111 -16 -21 -18
-34 -101 -33 -219 1 -63 1 -200 0 -305 -1 -104 1 -201 4 -215 6 -25 6 -123 0
-195 -2 -22 -6 -161 -9 -310 -9 -523 28 -580 384 -579 135 0 170 5 395 55 174
39 238 51 335 64 24 3 88 11 160 21 46 6 79 11 175 29 44 8 96 17 115 20 19 3
42 8 50 10 8 2 31 7 50 10 19 3 69 12 110 20 41 8 118 22 170 30 52 9 106 18
120 20 14 3 46 7 71 10 25 3 54 7 65 9 26 5 109 15 254 31 30 4 66 8 80 10 14
2 59 7 100 10 127 11 173 14 228 20 59 6 144 14 217 20 28 2 82 7 120 11 102
9 131 11 215 18 41 4 91 9 110 11 34 4 82 9 193 20 28 3 84 10 122 15 39 5 89
12 113 15 102 12 137 18 307 46 99 17 191 32 205 35 14 3 34 6 45 8 11 2 34 6
50 9 17 3 46 9 65 11 71 11 288 68 367 97 152 56 236 119 249 186 4 19 5 35 3
37 -23 18 -424 159 -485 170 -12 2 -48 11 -80 20 -57 14 -106 27 -130 32 -7 1
-45 10 -85 19 -93 21 -75 18 -264 53 -88 17 -209 34 -270 37 -60 3 -126 8
-145 10 -19 3 -57 7 -85 10 -90 10 -140 16 -161 19 -11 2 -52 7 -90 11 -38 4
-79 8 -92 10 -13 2 -53 7 -90 10 -37 3 -76 8 -88 10 -11 2 -45 7 -75 10 -50 6
-156 19 -239 31 -39 5 -47 6 -175 28 -49 9 -108 18 -130 22 -22 3 -71 12 -110
20 -38 9 -83 17 -100 19 -16 3 -41 7 -55 10 -14 3 -41 8 -60 11 -77 11 -140
29 -250 71 -166 63 -251 90 -340 108 -8 2 -33 8 -55 13 -22 6 -58 13 -80 17
-22 3 -51 8 -65 10 -14 2 -81 13 -150 25 -73 12 -138 29 -158 40 -18 11 -75
27 -125 35 -51 7 -102 16 -115 19 -13 3 -51 8 -85 11 -34 3 -75 8 -92 10 -59
7 -463 24 -468 19z"/>
<path d="M1773 3042 c-449 -443 -1053 -1044 -1053 -1047 0 -4 45 -52 127 -138
l65 -68 52 48 c28 26 53 50 56 53 3 3 66 61 140 130 74 69 144 134 155 145 12
11 75 70 140 130 66 61 135 125 155 144 19 18 76 71 125 116 50 46 117 109
150 139 33 31 63 56 66 56 4 0 254 -247 556 -550 302 -302 552 -550 556 -550
3 0 95 73 204 163 110 89 216 176 237 192 21 17 52 42 70 56 28 24 151 125
484 396 64 53 107 81 114 77 11 -7 384 -296 428 -331 8 -7 215 -167 460 -357
l444 -344 94 126 c51 70 98 134 105 142 37 46 209 285 212 294 2 6 -26 34 -62
61 -75 56 -734 565 -1237 955 -112 87 -131 98 -145 87 -28 -23 -166 -142 -171
-147 -3 -3 -39 -34 -80 -70 -41 -36 -77 -67 -80 -70 -3 -3 -39 -34 -80 -70
-41 -36 -88 -77 -105 -91 -16 -15 -73 -64 -125 -109 -52 -45 -120 -104 -150
-130 -58 -52 -67 -60 -150 -130 -29 -25 -73 -63 -97 -85 -97 -86 -68 -95 -231
72 -594 607 -1052 1073 -1055 1073 -1 0 -169 -165 -374 -368z"/>
</g>
</svg>
