<?xml version="1.0" encoding="utf-8"?>
<!-- Generator: Adobe Illustrator 15.1.0, SVG Export Plug-In . SVG Version: 6.00 Build 0)  -->
<!DOCTYPE svg PUBLIC "-//W3C//DTD SVG 1.1//EN" "http://www.w3.org/Graphics/SVG/1.1/DTD/svg11.dtd">
<svg version="1.1" id="Layer_1" xmlns="http://www.w3.org/2000/svg" xmlns:xlink="http://www.w3.org/1999/xlink" x="0px" y="0px"
	 width="320px" height="320px" viewBox="0 0 320 320" enable-background="new 0 0 320 320" xml:space="preserve">
<path stroke="#000000" stroke-miterlimit="10" d="M271.614,118.962c-1.833,7.401-4.381,7.954-11.791,8.745
	c-12.893,1.376-25.692-4.213-38.255-5.493c-14.224-1.449-27.683-4.94-41.752-7.114c-35.998-5.563-72.654-5.663-108.182-12.517
	c-7.503-1.447-37.057-5.229-38.149-14.874c-0.025-0.223-0.036-0.444-0.033-0.662c16.983-7.515,35.884-11.358,54.376-14.684
	c4.271-0.114,8.539-0.347,12.809-0.899c18.464-2.387,37.124-3.759,55.426-7.27c5.544-1.064,10.77-2.129,16.36-2.994
	c7.51-1.161,13.192-4.936,20.184-6.676c2.805-0.698,5.612-1.403,8.424-2.099c5.978-0.99,11.956-1.987,17.938-2.958
	c1.422-0.231,2.387-0.895,2.962-1.771c7.943-1.534,15.977-2.681,24.163-3.079c6.681-0.325,14.147-0.738,20.754,0.028
	c4.319,0.501,3.623-0.809,4.888,3.189c0.718,2.267,0.002,5.882,0.002,8.284c0,7.783,1.375,17.286-0.379,24.95
	c0.596,6.627,0.925,13.216,0.925,19.997C272.282,106.868,272.989,113.414,271.614,118.962z"/>
<polygon stroke="#000000" stroke-miterlimit="10" points="33.451,228.798 41.678,237.541 89.219,193.277 140.038,244.1 
	190.312,203.114 251.514,250.654 270.093,225.52 205.065,175.246 152.957,220.602 98.157,164.661 "/>
</svg>
