<?xml version="1.0" encoding="utf-8"?>
<!-- Generator: Adobe Illustrator 15.1.0, SVG Export Plug-In . SVG Version: 6.00 Build 0)  -->
<!DOCTYPE svg PUBLIC "-//W3C//DTD SVG 1.1//EN" "http://www.w3.org/Graphics/SVG/1.1/DTD/svg11.dtd">
<svg version="1.1" id="Layer_1" xmlns="http://www.w3.org/2000/svg" xmlns:xlink="http://www.w3.org/1999/xlink" x="0px" y="0px"
	 width="320px" height="320px" viewBox="0 0 320 320" enable-background="new 0 0 320 320" xml:space="preserve">
<path stroke="#000000" stroke-miterlimit="10" d="M57.524,111.858c10.337-7.073,33.333-10.929,32.787-25.792
	c1.093-11.366-13.661-17.377-26.776-24.481c-2.112-1.144-30.074-11.483-29.356-13.75c1.265-3.998,0.568-2.688,4.888-3.189
	c6.606-0.766,14.073-0.353,20.754-0.028c8.186,0.398,16.219,1.545,24.163,3.079c0.575,0.876,1.54,1.54,2.962,1.771
	c5.982,0.971,11.96,1.968,17.938,2.958c2.812,0.696,5.619,1.401,8.424,2.099c6.991,1.74,12.674,5.515,20.183,6.676
	c5.591,0.865,10.817,1.93,16.361,2.994c18.302,3.511,36.962,4.883,55.426,7.27c4.269,0.552,8.538,0.785,12.808,0.899
	c18.492,3.326,37.393,7.169,54.376,14.684c0.003,0.218-0.008,0.439-0.033,0.662c-1.093,9.645-30.647,13.427-38.149,14.874
	c-35.528,6.854-72.184,6.954-108.182,12.517c-14.069,2.174-27.528,5.665-41.752,7.114c-12.563,1.28-25.362,6.869-38.255,5.493
	c-7.41-0.791-9.958-1.344-11.791-8.745C32.926,113.414,47.142,118.962,57.524,111.858z"/>
<polygon stroke="#000000" stroke-miterlimit="10" points="33.451,228.798 41.678,237.541 89.219,193.278 140.038,244.099 
	190.312,203.114 251.514,250.655 270.093,225.52 205.065,175.246 152.957,220.602 98.157,164.661 "/>
</svg>
