<?xml version="1.0" encoding="utf-8"?>
<!-- Generator: Adobe Illustrator 15.1.0, SVG Export Plug-In . SVG Version: 6.00 Build 0)  -->
<!DOCTYPE svg PUBLIC "-//W3C//DTD SVG 1.1//EN" "http://www.w3.org/Graphics/SVG/1.1/DTD/svg11.dtd">
<svg version="1.1" id="Layer_1" xmlns="http://www.w3.org/2000/svg" xmlns:xlink="http://www.w3.org/1999/xlink" x="0px" y="0px"
	 width="320px" height="320px" viewBox="0 0 320 320" enable-background="new 0 0 320 320" xml:space="preserve">
<path stroke="#000000" stroke-miterlimit="10" d="M249.104,240.328c-10.338-7.073-33.334-10.929-32.787-25.792
	c-1.093-11.367,13.661-17.377,26.775-24.481c2.112-1.144,30.074-11.483,29.356-13.751c-1.265-3.998-0.568-2.688-4.888-3.188
	c-6.606-0.766-14.073-0.353-20.754-0.028c-8.186,0.398-16.219,1.545-24.163,3.079c-0.575,0.876-1.54,1.54-2.962,1.771
	c-5.982,0.971-11.96,1.968-17.938,2.957c-2.812,0.697-5.619,1.401-8.424,2.1c-6.991,1.739-12.674,5.514-20.183,6.676
	c-5.591,0.865-10.817,1.93-16.361,2.994c-18.302,3.51-36.962,4.883-55.426,7.27c-4.269,0.551-8.538,0.785-12.808,0.898
	c-18.492,3.326-37.393,7.17-54.376,14.684c-0.003,0.219,0.008,0.439,0.033,0.662c1.093,9.646,30.647,13.428,38.149,14.875
	c35.528,6.854,72.184,6.953,108.182,12.516c14.069,2.175,27.528,5.666,41.752,7.115c12.563,1.279,25.362,6.868,38.255,5.492
	c7.41-0.79,9.958-1.344,11.791-8.744C273.702,241.884,259.485,247.433,249.104,240.328z"/>
<polygon stroke="#000000" stroke-miterlimit="10" points="33.451,106.94 41.678,115.684 89.219,71.421 140.038,122.241 
	190.312,81.257 251.514,128.798 270.093,103.662 205.065,53.389 152.957,98.744 98.157,42.804 "/>
</svg>
