<?xml version="1.0" encoding="utf-8"?>
<!-- Generator: Adobe Illustrator 15.1.0, SVG Export Plug-In . SVG Version: 6.00 Build 0)  -->
<!DOCTYPE svg PUBLIC "-//W3C//DTD SVG 1.1//EN" "http://www.w3.org/Graphics/SVG/1.1/DTD/svg11.dtd">
<svg version="1.1" id="Layer_1" xmlns="http://www.w3.org/2000/svg" xmlns:xlink="http://www.w3.org/1999/xlink" x="0px" y="0px"
	 width="320px" height="320px" viewBox="0 0 320 320" enable-background="new 0 0 320 320" xml:space="preserve">
<path stroke="#000000" stroke-miterlimit="10" d="M302.402,212.302c-0.766,14.476-1.089,26.444-1.901,41.198
	c-1.1,19.938-16.478,19.834-31.991,17.391c-34.05-5.363-68.268-11.619-102.044-18.666c-14.044-2.93-27.813-6.949-41.674-10.549
	c-12.347-3.205-24.121-4.965-36.461-7.363c-16.173-3.145-32.291-5.739-46.705-13.801C22.238,209.671,52.43,205.305,59,203
	c7.786-2.729,20.042-6.709,28-7.5c11.776-1.172,18.779-3.467,30.5-5c18.146-2.371,24.257-5.914,42.5-9.612
	c9.098-1.845,37.892-4.431,47.5-5.388c10.146-1.011,21.38-2.711,31.452-4.139c13.767-1.953,28.192-2.228,42.194-2.229
	c5.231-0.002,11.242-1.26,14.98,2.065c3.742,3.328,5.369,9.228,6.245,13.781c1.732,9.002,0.573,18.023,0.573,27.321"/>
<path fill="#020202" stroke="#000000" stroke-miterlimit="10" d="M287.514,34.668c1.264,0.563,2.527,1.128,3.793,1.688
	c0.094,0.276,0.195,0.551,0.299,0.824c0.304,1.088,0.606,2.173,0.906,3.258c-0.055,2.144-0.25,2.144-0.344,4.284
	c-1.406,1.363-10.11,4.621-11.334,5.778c-18.667,5.667-31.288,10.517-32.334,24.333c-1.17,15.453,21.703,34.879,32.667,44
	c0.282,1.297,6.088,5.11,6.32,6.438c-0.431,1.433-1.05,2.816-1.728,4.184c-15.506,2.101-28.782-3.953-43.729-8.109
	c-21.596-6.006-43.64-9.897-65.48-15.19c-15.284-3.703-31.099-5.581-46.428-8.623c-12.123-2.406-23.653-5.026-35.597-8.198
	c-16.03-4.258-33.878-1.212-48.754-9.82c-2.064-1.195-3.767-2.454-6.139-3.372C37.59,63.44,88.803,57.828,96.896,56.508
	c13.703-2.235,27.256-7.644,41.396-9.647c16.368-2.32,32.48-6.596,49.113-7.236c11.014-0.424,21.979-3.201,33.146-3.946
	c11.65-0.778,23.25-0.972,34.994-0.972h29.426C285.843,34.706,286.688,34.688,287.514,34.668z"/>
</svg>
