<?xml version="1.0" encoding="utf-8"?>
<!-- Generator: Adobe Illustrator 15.1.0, SVG Export Plug-In . SVG Version: 6.00 Build 0)  -->
<!DOCTYPE svg PUBLIC "-//W3C//DTD SVG 1.1//EN" "http://www.w3.org/Graphics/SVG/1.1/DTD/svg11.dtd">
<svg version="1.1" id="Layer_1" xmlns="http://www.w3.org/2000/svg" xmlns:xlink="http://www.w3.org/1999/xlink" x="0px" y="0px"
	 width="320px" height="320px" viewBox="0 0 320 320" enable-background="new 0 0 320 320" xml:space="preserve">
<path stroke="#000000" stroke-miterlimit="10" d="M105.499,277.502c6.511,3.018,15.735,0.34,23.334,1.332
	c7.576,0.989,16.517,0.781,24.253,1.659c13.114,1.487,27.958,0.478,41.193,0.007c5.433-0.191,23.965,1.742,28.268-1.706
	c10.842-8.688-17.907-64.929-22.048-72.293c-12.667-41.333-17.494-82.176-35.727-139.924c-4.417-13.99-7.292-25.567-9.444-39.945
	c-9.035,4.187-9.752,29.345-12.101,38.832c-3.312,13.384-6.567,27.275-8.975,41.034c-3.375,19.295-2.958,39.106-6.774,58.148
	c-4.524,22.58-6.841,44.028-14.732,65.804C107.599,244.654,100.5,274.667,105.499,277.502"/>
</svg>
