<?xml version="1.0" encoding="utf-8"?>
<!-- Generator: Adobe Illustrator 15.1.0, SVG Export Plug-In . SVG Version: 6.00 Build 0)  -->
<!DOCTYPE svg PUBLIC "-//W3C//DTD SVG 1.1//EN" "http://www.w3.org/Graphics/SVG/1.1/DTD/svg11.dtd">
<svg version="1.1" id="Layer_1" xmlns="http://www.w3.org/2000/svg" xmlns:xlink="http://www.w3.org/1999/xlink" x="0px" y="0px"
	 width="320px" height="320px" viewBox="0 0 320 320" enable-background="new 0 0 320 320" xml:space="preserve">
<path stroke="#000000" stroke-miterlimit="10" d="M42.088,214.087c-3.018-6.511,0.404-19.489-0.588-27.087
	c-0.988-7.576-1.527-12.762-2.405-20.499c-1.487-13.114-0.477-27.958-0.007-41.194c0.191-5.432-4.222-11.504-0.774-15.807
	c8.688-10.842,32.254,1.517,53.219,4.737c28.313,4.35,103.729,22.345,161.479,40.576c13.99,4.417,25.567,7.292,39.945,9.445
	c-4.188,9.035-29.346,9.753-38.831,12.1c-13.385,3.313-27.275,6.568-41.034,8.977c-19.295,3.375-39.105,2.958-58.148,6.773
	c-22.58,4.524-44.027,6.842-65.803,14.732C74.936,211.986,57.409,215.701,42.088,214.087"/>
</svg>
