<?xml version="1.0" encoding="utf-8"?>
<!-- Generator: Adobe Illustrator 15.1.0, SVG Export Plug-In . SVG Version: 6.00 Build 0)  -->
<!DOCTYPE svg PUBLIC "-//W3C//DTD SVG 1.1//EN" "http://www.w3.org/Graphics/SVG/1.1/DTD/svg11.dtd">
<svg version="1.1" id="Layer_1" xmlns="http://www.w3.org/2000/svg" xmlns:xlink="http://www.w3.org/1999/xlink" x="0px" y="0px"
	 width="320px" height="320px" viewBox="0 0 320 320" enable-background="new 0 0 320 320" xml:space="preserve">
<path stroke="#000000" stroke-miterlimit="10" d="M302.402,94.918c-0.766-14.476,4.092-28.962,3.279-43.716
	c-1.1-19.938-21.658-17.317-37.172-14.874c-34.05,5.363-68.268,11.62-102.044,18.667c-14.044,2.93-27.813,6.949-41.674,10.549
	c-12.347,3.206-24.121,4.965-36.461,7.364c-16.173,3.144-32.291,5.739-46.705,13.799c-19.388,10.841,18.139,20.114,24.709,22.418
	c7.786,2.73,17.036,4.686,24.994,5.478c11.776,1.171,22.635,4.357,34.355,5.889c18.146,2.371,36.463,6.263,54.706,9.961
	c9.098,1.844,18.26,3.249,27.868,4.205c10.146,1.01,20.622-0.228,30.694,1.2c13.767,1.953,28.192,2.226,42.194,2.229
	c5.231,0.001,11.242,1.259,14.98-2.066c3.742-3.329,5.369-9.228,6.245-13.781c1.732-9.003,0.573-18.025,0.573-27.322"/>
<path fill="#020202" stroke="#000000" stroke-miterlimit="10" d="M287.514,272.552c1.264-0.563,2.527-1.128,3.793-1.688
	c0.094-0.276,0.195-0.552,0.299-0.824c0.304-1.088,0.606-2.173,0.906-3.258c-0.055-2.144-1.168-1.642-1.262-3.782
	c-1.406-1.363-4.878-1.317-9.75-2.5c-8.5-2.75-43.704-19.183-44.75-33c-1.17-15.452,15.354-34.006,47.795-41.104
	c4.455-1.646,2.71-3.121,2.942-4.448c-0.431-1.433-1.05-2.816-1.728-4.185c-15.506-2.101-28.782,3.953-43.729,8.109
	c-21.596,6.006-43.64,9.896-65.48,15.189c-15.284,3.703-31.099,5.582-46.428,8.623c-12.123,2.406-23.653,5.026-35.597,8.198
	c-16.03,4.259-33.878,1.212-48.754,9.82c-2.064,1.194-3.767,2.454-6.139,3.372c-2.043,12.701,49.17,18.314,57.264,19.635
	c13.703,2.234,27.256,7.645,41.396,9.646c16.368,2.32,32.48,6.597,49.114,7.236c11.013,0.424,21.978,3.201,33.146,3.946
	c11.65,0.778,23.25,0.972,34.994,0.972h29.426C285.843,272.514,286.688,272.532,287.514,272.552z"/>
</svg>
