<?xml version="1.0" encoding="utf-8"?>
<!-- Generator: Adobe Illustrator 15.1.0, SVG Export Plug-In . SVG Version: 6.00 Build 0)  -->
<!DOCTYPE svg PUBLIC "-//W3C//DTD SVG 1.1//EN" "http://www.w3.org/Graphics/SVG/1.1/DTD/svg11.dtd">
<svg version="1.1" id="Layer_1" xmlns="http://www.w3.org/2000/svg" xmlns:xlink="http://www.w3.org/1999/xlink" x="0px" y="0px"
	 width="320px" height="320px" viewBox="0 0 320 320" enable-background="new 0 0 320 320" xml:space="preserve">
<path stroke="#000000" stroke-miterlimit="10" d="M83.5,28.5c15-17,49.458,57.832,76.5,57c32.5-1,36.186-53.954,49.5-54
	c13.688-0.047,10.255-0.631,5.318,13.229c-3.448,9.684-6.979,19.83-10.241,29.713c-3.557,10.772-5.334,20.028-8.073,31.05
	c-3.923,15.782-3.926,32.942-6.788,49.491c-2.845,16.438-8.452,32.64-11.988,49.292c-1.545,7.276-8.74,76.469-15.502,77.093
	c-0.506,0.354-1.015,0.361-1.524,0.02c-6.452-26.703-17.257-51.568-22.305-77.959c-4.751-24.843-7.294-39.646-15.896-60.929
	c-7.801-19.299-17.187-49.185-22.997-69.226C96.026,61.276,94.869,35.674,84.5,27.5"/>
</svg>
