<?xml version="1.0" encoding="utf-8"?>
<!-- Generator: Adobe Illustrator 15.1.0, SVG Export Plug-In . SVG Version: 6.00 Build 0)  -->
<!DOCTYPE svg PUBLIC "-//W3C//DTD SVG 1.1//EN" "http://www.w3.org/Graphics/SVG/1.1/DTD/svg11.dtd">
<svg version="1.1" id="Layer_1" xmlns="http://www.w3.org/2000/svg" xmlns:xlink="http://www.w3.org/1999/xlink" x="0px" y="0px"
	 width="320px" height="320px" viewBox="0 0 320 320" enable-background="new 0 0 320 320" xml:space="preserve">
<path stroke="#000000" stroke-miterlimit="10" d="M106.5,274.5c6.511,3.017,21.076-32.719,28-36c10.004-4.741,17.764-14.878,25.5-14
	c13.114,1.487,27.067,12.787,35.5,23c14.031,16.993,22.745,34.742,27.048,31.294c10.842-8.688-5.827-29.08-9.968-36.445
	c-30.228-53.776-29.574-118.024-47.806-175.772c-4.417-13.99-7.292-25.567-9.445-39.945c-9.035,4.187-9.752,29.345-12.1,38.832
	c-3.312,13.384-6.568,27.275-8.975,41.034c-3.375,19.295-2.958,39.106-6.774,58.149c-4.525,22.58-6.841,44.028-14.733,65.803
	c-5.148,14.204-8.861,31.731-7.248,47.052"/>
</svg>
