<?xml version="1.0" encoding="utf-8"?>
<!-- Generator: Adobe Illustrator 15.1.0, SVG Export Plug-In . SVG Version: 6.00 Build 0)  -->
<!DOCTYPE svg PUBLIC "-//W3C//DTD SVG 1.1//EN" "http://www.w3.org/Graphics/SVG/1.1/DTD/svg11.dtd">
<svg version="1.1" id="Layer_1" xmlns="http://www.w3.org/2000/svg" xmlns:xlink="http://www.w3.org/1999/xlink" x="0px" y="0px"
	 width="320px" height="320px" viewBox="0 0 320 320" enable-background="new 0 0 320 320" xml:space="preserve">
<path stroke="#000000" stroke-miterlimit="10" d="M39.492,94.918c0.766-14.476-4.092-28.962-3.279-43.716
	c1.098-19.938,21.658-17.317,37.171-14.874c34.05,5.363,68.268,11.62,102.044,18.667c14.044,2.93,27.813,6.949,41.674,10.549
	c12.346,3.206,24.121,4.965,36.461,7.364c16.173,3.144,32.291,5.739,46.705,13.799c19.387,10.841-18.139,20.114-24.709,22.418
	c-7.786,2.73-17.036,4.686-24.994,5.478c-11.776,1.171-22.635,4.357-34.355,5.889c-18.146,2.371-36.463,6.263-54.706,9.961
	c-9.099,1.844-18.26,3.249-27.869,4.205c-10.146,1.01-20.622-0.228-30.694,1.2c-13.767,1.953-28.192,2.226-42.195,2.229
	c-5.231,0.001-11.242,1.259-14.98-2.066c-3.743-3.329-5.37-9.228-6.246-13.781c-1.731-9.003-0.573-18.025-0.573-27.322"/>
<path fill="#020202" stroke="#000000" stroke-miterlimit="10" d="M302.262,231.077c-2.372-0.918-4.073-2.177-6.139-3.372
	c-14.876-8.607-32.724-5.563-48.754-9.82c-11.942-3.172-23.474-5.792-35.597-8.197c-15.329-3.043-31.144-4.92-46.428-8.623
	c-21.842-5.293-43.886-9.186-65.482-15.19c-15.726-4.373-29.599-10.866-46.171-7.729c-0.197,2.244,0.184,4.561,0.491,6.91
	C65.718,194.221,97.5,196.5,94.5,224.961c-3,33.539-22.176,25.256-32,34.539c-3.526,3.331-17.436,4.6-18.621,9.594
	c-0.122,0.514-0.201,1.031-0.249,1.551c3.21,2.576,7.835,1.871,13.289,1.871h29.426c11.745,0,23.344-0.193,34.994-0.973
	c11.168-0.745,22.133-3.521,33.146-3.945c16.634-0.642,32.746-4.916,49.114-7.236c14.141-2.004,27.693-7.412,41.396-9.647
	C253.092,249.393,304.305,243.779,302.262,231.077z"/>
</svg>
