<?xml version="1.0" encoding="utf-8"?>
<!-- Generator: Adobe Illustrator 15.1.0, SVG Export Plug-In . SVG Version: 6.00 Build 0)  -->
<!DOCTYPE svg PUBLIC "-//W3C//DTD SVG 1.1//EN" "http://www.w3.org/Graphics/SVG/1.1/DTD/svg11.dtd">
<svg version="1.1" id="Layer_1" xmlns="http://www.w3.org/2000/svg" xmlns:xlink="http://www.w3.org/1999/xlink" x="0px" y="0px"
	 width="320px" height="320px" viewBox="0 0 320 320" enable-background="new 0 0 320 320" xml:space="preserve">
<path stroke="#000000" stroke-miterlimit="10" d="M39.492,212.302c0.766,14.476-4.092,28.962-3.279,43.716
	c1.099,19.938,21.658,17.316,37.172,14.873c34.05-5.363,68.268-11.619,102.044-18.666c14.044-2.93,27.813-6.949,41.674-10.549
	c12.346-3.205,24.121-4.965,36.461-7.364c16.173-3.144,32.291-5.739,46.705-13.8c19.387-10.841-18.139-20.113-24.709-22.418
	c-7.786-2.73-17.036-4.686-24.994-5.477c-11.777-1.172-22.635-4.357-34.356-5.89c-18.146-2.371-36.463-6.263-54.706-9.962
	c-9.098-1.844-18.26-3.248-27.868-4.205c-10.146-1.01-20.622,0.229-30.694-1.199c-13.767-1.953-28.193-2.227-42.195-2.229
	c-5.231-0.002-11.242-1.26-14.98,2.065c-3.743,3.329-5.37,9.228-6.246,13.781c-1.732,9.003-0.573,18.024-0.573,27.322"/>
<path fill="#020202" stroke="#000000" stroke-miterlimit="10" d="M244.998,56.508c-13.703-2.235-27.256-7.644-41.396-9.647
	c-16.368-2.32-32.481-6.596-49.114-7.236c-11.013-0.424-21.978-3.201-33.146-3.946c-11.65-0.778-23.25-0.972-34.994-0.972H56.922
	c-0.87,0-1.716-0.019-2.541-0.038c-1.264,0.563-2.527,1.128-3.793,1.688c-0.094,0.276-0.195,0.551-0.299,0.824
	c-0.208,0.749-0.416,1.496-0.624,2.243c2.72,5.583,9.028,8.971,14.359,12.128c7.225,4.279,15.504,9.149,19.327,17.016
	c10.478,21.556-5.632,38.962-23.694,48.606c-1.403,1.452-2.886,2.839-4.453,4.144c-0.282,1.297-0.563,2.627-0.796,3.955
	c0.431,1.433,1.05,2.816,1.728,4.184c15.506,2.101,28.782-3.953,43.729-8.109c21.596-6.006,43.64-9.897,65.481-15.19
	c15.284-3.703,31.099-5.581,46.428-8.623c12.123-2.406,23.653-5.026,35.596-8.198c16.031-4.258,33.878-1.212,48.754-9.82
	c2.065-1.195,3.767-2.454,6.139-3.372C304.305,63.44,253.092,57.828,244.998,56.508z"/>
</svg>
