<svg xmlns="http://www.w3.org/2000/svg" width="320" height="320" viewBox="0 0 320 320">
<path stroke="#000000" stroke-miterlimit="10" d="M39.492,94.918c0.766-14.476-4.091-28.962-3.279-43.716
	c1.098-19.938,21.658-17.317,37.171-14.874c34.05,5.363,68.268,11.62,102.044,18.667c14.044,2.93,27.813,6.949,41.674,10.549
	c12.346,3.206,24.121,4.965,36.461,7.364c16.173,3.144,32.291,5.739,46.705,13.799c19.387,10.841-18.139,20.114-24.709,22.418
	c-7.786,2.73-17.036,4.686-24.994,5.478c-11.777,1.171-22.635,4.357-34.356,5.889c-18.146,2.371-36.463,6.263-54.706,9.961
	c-9.098,1.844-18.26,3.249-27.869,4.205c-10.146,1.01-20.622-0.228-30.694,1.2c-13.767,1.953-28.193,2.226-42.196,2.229
	c-5.231,0.001-11.242,1.259-14.98-2.066c-3.743-3.329-5.37-9.228-6.246-13.781c-1.732-9.003-0.573-18.025-0.573-27.322"/>
<path fill="#020202" stroke="#000000" stroke-miterlimit="10" d="M39.492,225.52c0-13.789-5.032-42.897,12.114-46.938
	c17.507-4.126,31.875,2.736,48.258,7.292c21.596,6.006,43.64,9.897,65.482,15.19c15.284,3.703,31.099,5.581,46.428,8.623
	c12.123,2.406,23.653,5.026,35.596,8.198c16.031,4.258,33.878,1.212,48.754,9.82c2.065,1.195,3.767,2.454,6.139,3.372
	c2.043,12.702-49.17,18.314-57.264,19.635c-13.703,2.235-27.256,7.644-41.396,9.647c-16.368,2.32-32.481,6.596-49.114,7.236
	c-11.013,0.424-21.978,3.201-33.146,3.946c-11.65,0.778-23.25,0.972-34.994,0.972c-9.809,0-19.617,0-29.426,0
	c-7.692,0-13.738,1.41-16.487-6.97c-4.07-12.406,3.317-27.383-0.943-39.479"/>
</svg>
