<?xml version="1.0" encoding="utf-8"?>
<!-- Generator: Adobe Illustrator 15.1.0, SVG Export Plug-In . SVG Version: 6.00 Build 0)  -->
<!DOCTYPE svg PUBLIC "-//W3C//DTD SVG 1.1//EN" "http://www.w3.org/Graphics/SVG/1.1/DTD/svg11.dtd">
<svg version="1.1" id="Layer_1" xmlns="http://www.w3.org/2000/svg" xmlns:xlink="http://www.w3.org/1999/xlink" x="0px" y="0px"
	 width="320px" height="320px" viewBox="0 0 320 320" enable-background="new 0 0 320 320" xml:space="preserve">
<path stroke="#000000" stroke-miterlimit="10" d="M249.104,244.064c-10.338-7.072-33.334-10.928-32.787-25.791
	c-1.093-11.365,13.661-17.377,26.775-24.48c2.112-1.145,30.074-11.484,29.355-13.75c-1.265-3.998-0.567-2.689-4.888-3.189
	c-6.605-0.766-14.073-0.354-20.754-0.027c-8.186,0.396-16.219,1.545-24.163,3.078c-0.575,0.877-1.54,1.539-2.962,1.771
	c-5.981,0.971-11.96,1.967-17.938,2.957c-2.813,0.697-5.619,1.402-8.425,2.1c-6.99,1.74-12.674,5.516-20.183,6.676
	c-5.591,0.865-10.817,1.93-16.361,2.994c-18.302,3.512-36.962,4.883-55.426,7.27c-4.269,0.553-8.538,0.785-12.808,0.9
	c-18.492,3.324-37.394,7.168-54.376,14.684c-0.003,0.217,0.008,0.438,0.032,0.662c1.094,9.645,30.647,13.426,38.149,14.873
	c35.528,6.854,72.184,6.955,108.182,12.518c14.069,2.174,27.528,5.664,41.752,7.113c12.563,1.281,25.362,6.869,38.256,5.494
	c7.409-0.791,9.958-1.346,11.791-8.746C273.702,245.621,259.485,251.17,249.104,244.064z"/>
<polygon stroke="#000000" stroke-miterlimit="10" points="33.451,102.005 41.678,110.749 89.219,66.485 140.038,117.307 
	190.312,76.322 251.514,123.862 270.093,98.727 205.065,48.454 152.957,93.809 98.157,37.869 "/>
</svg>
