<?xml version="1.0" encoding="utf-8"?>
<!-- Generator: Adobe Illustrator 15.1.0, SVG Export Plug-In . SVG Version: 6.00 Build 0)  -->
<!DOCTYPE svg PUBLIC "-//W3C//DTD SVG 1.1//EN" "http://www.w3.org/Graphics/SVG/1.1/DTD/svg11.dtd">
<svg version="1.1" id="Layer_1" xmlns="http://www.w3.org/2000/svg" xmlns:xlink="http://www.w3.org/1999/xlink" x="0px" y="0px"
	 width="320px" height="320px" viewBox="0 0 320 320" enable-background="new 0 0 320 320" xml:space="preserve">
<path stroke="#000000" stroke-miterlimit="10" d="M74.468,225.52c-1.65-2.407-51.989-8.887-28.096-17.06
	c21.551-7.373,46.518-4.489,68.67-9.61c10.497-2.427,20.202-5.215,31.077-6.089c11.854-0.952,23.55-2.552,34.916-5.489
	c20.601-5.323,43.629-6.464,65.205-8.077c8.848-0.661,19.038-4.188,28.095-1.925c7.948,1.985,7.236,9.306,7.237,16.288
	c0.003,16.152,3.279,31.507,3.279,47.688c0,3.595,1.756,14.595-0.204,17.497c-2.322,3.438-11.173,3.276-14.578,4.349
	c-13.424,4.225-29.378,2.194-43.291,0.011c-15.262-2.396-29.291-9.888-44.766-11.38c-14.002-1.35-26.379-4.007-39.83-6.503
	c-3.454-0.641-6.291-2.693-9.339-3.638c-3.757-1.164-8.057-0.884-11.833-1.84c-5.851-1.481-11.727-4.196-17.564-5.894
	c-5.414-1.574-11.647-1.646-17.118-3.383c-5.585-1.772-7.946-5.623-14.045-5.493"/>
<path stroke="#000000" stroke-miterlimit="10" d="M272.281,101.065c0-6.781-0.329-13.37-0.925-19.997
	c1.754-7.664,0.379-17.167,0.379-24.95c0-2.402,0.716-6.017-0.002-8.284c-1.265-3.998-0.568-2.688-4.888-3.189
	c-6.606-0.766-14.073-0.353-20.754-0.028c-8.186,0.398-16.219,1.545-24.163,3.079c-0.575,0.876-1.54,1.54-2.962,1.771
	c-5.982,0.971-11.96,1.968-17.938,2.958c-2.812,0.696-5.619,1.401-8.424,2.099c-6.991,1.74-12.674,5.515-20.183,6.676
	c-5.591,0.865-10.817,1.93-16.361,2.994c-18.302,3.511-36.962,4.883-55.426,7.27c-4.269,0.552-8.539,0.785-12.808,0.899
	c-18.493,3.326-37.393,7.169-54.376,14.684c-0.002,0.218,0.008,0.439,0.033,0.662c1.093,9.645,30.648,13.427,38.149,14.874
	c35.529,6.854,72.184,6.954,108.182,12.517c14.069,2.174,27.528,5.665,41.752,7.114c12.563,1.28,25.362,6.869,38.255,5.493
	c7.41-0.791,9.958-1.344,11.791-8.745C272.987,113.414,272.281,106.868,272.281,101.065z"/>
</svg>
